<svg xmlns="http://www.w3.org/2000/svg" width="55.585" height="55.525" viewBox="0 0 55.585 55.525">
  <g id="Group_50439" data-name="Group 50439" transform="translate(-1596.832 -311.615)">
    <path id="Path_61" data-name="Path 61" d="M1605.333,311.851a25.71,25.71,0,0,1,4.216-.228q3.912.011,7.824.006h8.136c.917,0,1.835-.019,2.753-.012.459,0,.917.014,1.376.037a4.4,4.4,0,0,1,.646.047c.2.04.388.132.592.159a5.144,5.144,0,0,1,.685.165,9.123,9.123,0,0,1,1.359.505,9.509,9.509,0,0,1,2.387,1.594,9.25,9.25,0,0,1,2.832,4.872,8.354,8.354,0,0,1,.161,1.172c.077,1.176.135,2.354.208,3.64,1.33,0,2.619-.011,3.908,0,3.289.033,6.146,1.13,8.016,3.9a10.21,10.21,0,0,1,1.846,4.8c.252,3.963.084,7.96.079,11.929q-.005,6.108-.008,12.216v9.4c-1.117,1.353-1.79,1.426-3.153.3-2.865-2.376-5.736-4.744-8.567-7.159a3.023,3.023,0,0,0-2.146-.762q-8.293.049-16.586.008a29.542,29.542,0,0,1-3.24-.186,9.264,9.264,0,0,1-7.716-7.964c-.132-1.894-.023-3.8-.023-5.707l0-.216a2.332,2.332,0,0,0-2.138.762c-3.025,2.464-6.01,4.978-9,7.48a1.726,1.726,0,0,1-1.983.427,1.753,1.753,0,0,1-.958-1.788c.007-10.01-.017-20.02.018-30.03a8.808,8.808,0,0,1,3.909-7.692,10.58,10.58,0,0,1,2.254-1.071A12.483,12.483,0,0,1,1605.333,311.851Zm-5.243,36.25c2.444-2.035,4.712-3.871,6.916-5.782a4.145,4.145,0,0,1,2.933-1.088q9.214.064,18.429.013c4.256-.018,6.792-2.59,6.8-6.848q.019-6.342,0-12.683c-.013-4.26-2.575-6.826-6.814-6.831q-10.732-.011-21.465,0c-4.25,0-6.8,2.564-6.8,6.829q-.007,12.575,0,25.15Zm37.351-8.581c1.545,0,3.021-.041,4.495.014a1.58,1.58,0,0,1,1.661,1.82,1.7,1.7,0,0,1-1.9,1.4c-1.988.01-3.977-.051-5.96.033a10.538,10.538,0,0,0-2.344.581,15.378,15.378,0,0,1-3.5.99c-4.837.145-9.679.114-14.519.147-.418,0-.838,0-1.363,0,0,1.342,0,2.526,0,3.711.011,4.433,2.563,6.974,7.015,6.977,6.178,0,12.357.015,18.535-.014a3.362,3.362,0,0,1,2.356.859c2.027,1.742,4.1,3.436,6.151,5.145.289.24.6.455.922.7a1.3,1.3,0,0,0,.1-.291q0-14.2-.008-28.4a5.912,5.912,0,0,0-1.527-3.956c-2.53-2.9-5.876-2.054-9.058-2.144v5.44c1.173,0,2.287-.045,3.394.013a1.669,1.669,0,0,1,1.738,1.689,1.653,1.653,0,0,1-1.777,1.526c-.9.036-1.81-.034-2.707.041a1.132,1.132,0,0,0-.838.548C1637.968,337.323,1637.751,338.34,1637.442,339.52Z" transform="translate(0 0)" fill="#b3a05c"/>
    <path id="Path_62" data-name="Path 62" d="M1635.436,331.043a5.6,5.6,0,0,1-3.419,4.556c-.5.249-.9.409-1,1.088a1.393,1.393,0,0,1-1.571,1.184,1.36,1.36,0,0,1-1.448-1.2,9.862,9.862,0,0,1-.009-2.463c.131-1.018.982-1.206,1.844-1.338a2.729,2.729,0,0,0,2.318-2.114,2.7,2.7,0,0,0-5.208-1.374c-.1.345-.137.707-.222,1.057a1.578,1.578,0,0,1-1.8,1.331,1.648,1.648,0,0,1-1.387-1.782,6.018,6.018,0,0,1,3.882-5.377,5.951,5.951,0,0,1,6.518,1.6A6.45,6.45,0,0,1,1635.436,331.043Z" transform="translate(-11.883 -5.618)" fill="#b3a05c"/>
    <path id="Path_63" data-name="Path 63" d="M1634.6,354.063a1.543,1.543,0,0,1-1.517,1.615,1.581,1.581,0,1,1,1.517-1.615Z" transform="translate(-15.393 -18.2)" fill="#b3a05c"/>
    <path id="Path_64" data-name="Path 64" d="M1649.852,374.414q4.762,0,9.524,0c.4,0,.9-.109,1.165.087.5.375,1.169.914,1.2,1.422s-.568,1.115-1.009,1.563c-.2.2-.684.171-1.039.172q-9.9.013-19.806,0a4.175,4.175,0,0,1-.961-.114,1.433,1.433,0,0,1-1.184-1.579,1.462,1.462,0,0,1,1.4-1.515,8.751,8.751,0,0,1,1.08-.039Q1645.036,374.412,1649.852,374.414Z" transform="translate(-18.203 -27.931)" fill="#b3a05c"/>
  </g>
</svg>
