<svg xmlns="http://www.w3.org/2000/svg" width="54.624" height="55.889" viewBox="0 0 54.624 55.889">
  <g id="Group_50437" data-name="Group 50437" transform="translate(-2023.57 -696.733)">
    <path id="Path_104954" data-name="Path 104954" d="M2090.655,714.427a1.414,1.414,0,0,1-.966-.368,1.163,1.163,0,0,1,0-1.75l16.274-14.893a1.44,1.44,0,0,1,1.911,0l13.442,12.246a1.174,1.174,0,0,1,0,1.749l-2.878,2.625a1.44,1.44,0,0,1-1.91,0,1.163,1.163,0,0,1,0-1.75l1.91-1.75-11.486-10.5-15.33,14.019a1.441,1.441,0,0,1-.967.368Z" transform="translate(-50.478 -0.082)" fill="#b3a05c" stroke="#b3a05c" stroke-width="0.3"/>
    <path id="Path_104955" data-name="Path 104955" d="M2066.149,714.345a1.515,1.515,0,0,1-.69-.161,1.18,1.18,0,0,1-.483-1.7l9.483-14.916a1.43,1.43,0,0,1,1.841-.46l7.942,4.166a1.205,1.205,0,0,1,.507,1.7,1.407,1.407,0,0,1-1.842.461l-6.768-3.545-8.816,13.834a1.411,1.411,0,0,1-1.175.621Z" transform="translate(-31.612 0)" fill="#b3a05c" stroke="#b3a05c" stroke-width="0.3"/>
    <path id="Path_104956" data-name="Path 104956" d="M2071.254,761.63H2030.51a7.039,7.039,0,0,0-6.79,7.261V795a7.039,7.039,0,0,0,6.79,7.261h40.744a7.039,7.039,0,0,0,6.791-7.261V768.891A7.039,7.039,0,0,0,2071.254,761.63Zm4.074,33.4a4.227,4.227,0,0,1-4.074,4.357H2030.51a4.227,4.227,0,0,1-4.074-4.357V768.918a4.21,4.21,0,0,1,4.074-4.357h40.744a4.227,4.227,0,0,1,4.074,4.357Z" transform="translate(0 -49.794)" fill="#b3a05c" stroke="#b3a05c" stroke-width="0.3"/>
    <path id="Path_104957" data-name="Path 104957" d="M2190.587,815.53a5.471,5.471,0,1,0,5.432,5.469A5.46,5.46,0,0,0,2190.587,815.53Zm0,8.231a2.736,2.736,0,1,1,2.716-2.737A2.724,2.724,0,0,1,2190.587,823.761Z" transform="translate(-126.659 -87.16)" fill="#b3a05c" stroke="#b3a05c" stroke-width="1"/>
  </g>
</svg>
