<svg xmlns="http://www.w3.org/2000/svg" width="59.153" height="55.525" viewBox="0 0 59.153 55.525">
  <g id="Group_50440" data-name="Group 50440" transform="translate(-1102.317 318.009)">
    <path id="Path_104975" data-name="Path 104975" d="M1117.363-314.4c1.392,2.031,1.488,4.228,1.47,6.486-.05,5.937-.025,11.876-.029,17.813,0,.227.01.455-.006.681a1.727,1.727,0,0,1-1.663,1.8,1.7,1.7,0,0,1-1.729-1.834c-.026-2.193-.008-4.387-.009-6.581V-297.4h-4.7c-2.08,0-4.16.01-6.24,0-1.477-.009-2.1-.588-2.105-2.047-.023-3.4-.071-6.809.011-10.211a8.347,8.347,0,0,1,8.619-8.345q9.076.057,18.152.06c7.829.01,15.658-.008,23.487.006,4.244.008,7.381,2.167,8.46,5.854a9.738,9.738,0,0,1,.373,2.678q.033,21.047.014,42.095c0,3.013-1.79,4.825-4.778,4.827q-18.267.01-36.535,0a4.372,4.372,0,0,1-4.763-4.707c-.01-5.181.007-10.363-.011-15.544,0-.96.227-1.726,1.223-2.053,1.193-.39,2.177.479,2.184,1.983.018,3.744.006,7.489.006,11.233q0,1.929,0,3.858c0,1.733.108,1.836,1.894,1.836h29.16c2.194,0,4.388,0,6.581,0,1.369,0,1.623-.242,1.624-1.556q.011-21.047.008-42.095a4.719,4.719,0,0,0-4.769-5c-11.8-.042-23.6,0-35.4.007A3.358,3.358,0,0,0,1117.363-314.4Zm-2.015,13.532c0-3.046.086-5.958-.024-8.863a4.712,4.712,0,0,0-5.119-4.732,4.729,4.729,0,0,0-4.449,4.936c-.047,2.646-.014,5.294-.005,7.941a4.052,4.052,0,0,0,.128.719Z" transform="translate(0)" fill="#b3a05c"/>
    <path id="Path_104976" data-name="Path 104976" d="M1184.914-259.265c-4.309,0-8.618.006-12.927,0-1.232,0-1.912-.56-1.982-1.554a1.674,1.674,0,0,1,1.71-1.842c.791-.048,1.587,0,2.381,0h23.36c.34,0,.682-.02,1.02.013a1.749,1.749,0,0,1,1.688,1.669,1.692,1.692,0,0,1-1.755,1.7c-2,.034-4.007.013-6.01.014h-7.485Z" transform="translate(-47.163 -38.549)" fill="#b3a05c"/>
    <path id="Path_104977" data-name="Path 104977" d="M1184.868-228.585c-4.31,0-8.62.034-12.928-.038a2.652,2.652,0,0,1-1.8-.856,1.592,1.592,0,0,1,1.063-2.459,5.433,5.433,0,0,1,1.24-.072q12.532,0,25.063.01c.227,0,.454-.009.68,0a1.763,1.763,0,0,1,1.861,1.729,1.731,1.731,0,0,1-1.911,1.663c-4.423.016-8.846.007-13.269.007Z" transform="translate(-47.051 -59.924)" fill="#b3a05c"/>
    <path id="Path_104978" data-name="Path 104978" d="M1185-197.957h-12.48a5.936,5.936,0,0,1-1.019-.026,1.6,1.6,0,0,1-1.479-1.594,1.622,1.622,0,0,1,1.417-1.768,2.931,2.931,0,0,1,.678-.035q12.991,0,25.982.013c1.294,0,2.108.7,2.092,1.732s-.824,1.674-2.142,1.677Q1191.526-197.949,1185-197.957Z" transform="translate(-47.178 -81.266)" fill="#b3a05c"/>
    <path id="Path_104979" data-name="Path 104979" d="M1200.456-289.923c-2.077,0-4.154.011-6.231,0-1.258-.009-2-.632-2.017-1.65a1.747,1.747,0,0,1,1.957-1.74q6.344-.033,12.689,0c1.238.005,2.005.684,2.027,1.681.022,1.036-.77,1.7-2.08,1.712C1204.686-289.914,1202.571-289.923,1200.456-289.923Z" transform="translate(-62.638 -17.194)" fill="#b3a05c"/>
    <path id="Path_104980" data-name="Path 104980" d="M1178.194-170.7c2,0,4.008-.01,6.011,0,1.308.009,2.056.675,2.025,1.759-.03,1.032-.756,1.649-2.02,1.652q-6.125.016-12.25,0c-1.24,0-1.967-.662-1.969-1.7s.725-1.7,1.964-1.705C1174.035-170.712,1176.115-170.7,1178.194-170.7Z" transform="translate(-47.158 -102.645)" fill="#b3a05c"/>
  </g>
</svg>
