<svg xmlns="http://www.w3.org/2000/svg" width="22.845" height="20.531" viewBox="0 0 22.845 20.531">
  <g id="Group_50357" data-name="Group 50357" transform="translate(-1710.863 -1131.931)">
    <path id="Path_104960" data-name="Path 104960" d="M1717.545,1152.463c-.819,0-1.623-.007-2.388-.02a4.393,4.393,0,0,1-4.286-4.328c-.011-1.367-.008-2.758-.006-4.1q0-.91,0-1.82v-.219h0q0-.776,0-1.552c0-1.308,0-2.66,0-3.99a4.454,4.454,0,0,1,4.479-4.492c.781,0,1.592-.006,2.479-.006q1.039,0,2.079,0a4.522,4.522,0,0,1,2.936,1.069,4.423,4.423,0,0,1,1.484,2.735,10.306,10.306,0,0,1,.033,1.894.89.89,0,0,1-.907.835h-.024a.943.943,0,0,1-.915-.906c-.01-.25-.008-.506-.006-.755,0-.153,0-.311,0-.468a2.488,2.488,0,0,0-2.389-2.513c-.818-.022-1.668-.032-2.527-.032-.774,0-1.581.009-2.4.026a2.526,2.526,0,0,0-2.473,2.61c0,3.875,0,7.763,0,11.523a3.022,3.022,0,0,0,.042.467,2.469,2.469,0,0,0,2.349,2.139c.9.02,1.778.03,2.61.03.809,0,1.606-.01,2.369-.028a2.51,2.51,0,0,0,2.417-2.544c0-.165,0-.33,0-.5,0-.2,0-.416,0-.623a.944.944,0,0,1,.918-.982h.025a.91.91,0,0,1,.916.913l0,.158a6.854,6.854,0,0,1-.224,2.442,4.413,4.413,0,0,1-4.084,3.015C1719.179,1152.456,1718.355,1152.463,1717.545,1152.463Z" fill="#61aa96"/>
    <path id="Path_104961" data-name="Path 104961" d="M1808.76,1228.292a1.034,1.034,0,0,1-.321-.055.885.885,0,0,1-.6-.639.988.988,0,0,1,.273-.927c.54-.55,1.1-1.1,1.633-1.638l.758-.756c.049-.049.1-.1.144-.15l.063-.067.1-.1-.141-.33h-13.487a.932.932,0,0,1-1-.743.922.922,0,0,1,.82-1.106c.064,0,.129,0,.184,0h13.892l-.314-.362-.089-.1c-.052-.062-.094-.111-.142-.159l-.212-.212c-.715-.716-1.454-1.457-2.184-2.182a.925.925,0,0,1-.266-1.022.948.948,0,0,1,.886-.641.785.785,0,0,1,.557.225c1.535,1.492,3.032,3,4.807,4.8a.885.885,0,0,1,0,1.183c-.027.033-.059.068-.1.105l-1.744,1.744-2.831,2.832A.942.942,0,0,1,1808.76,1228.292Z" transform="translate(-80.632 -80.507)" fill="#61aa96"/>
  </g>
</svg>
