<svg xmlns="http://www.w3.org/2000/svg" width="55.249" height="55.525" viewBox="0 0 55.249 55.525">
  <g id="Group_50438" data-name="Group 50438" transform="translate(-207.166 -165.938)">
    <path id="Path_104943" data-name="Path 104943" d="M234.69,202.59a12.625,12.625,0,0,0-5.761,5.568,9.218,9.218,0,0,1-1.5,2.09q-4.515,4.6-9.108,9.128a6.424,6.424,0,1,1-9.073-9.084q4.685-4.758,9.449-9.438a6.465,6.465,0,0,1,1.622-1.113,12.234,12.234,0,0,0,5.565-5.526l-3.91-3.654c-5.381.849-10.061-.9-13.128-5.989a11.437,11.437,0,0,1-.38-11.268c0,.079,1.195,1.1,1.656,1.543,1.882,1.8,3.677,3.694,5.581,5.63l4.519-1.147,1.184-4.457c-1.836-1.827-3.705-3.636-5.5-5.515-.413-.432-.923-1.243-.767-1.633a2.473,2.473,0,0,1,1.581-1.148c8.288-2.042,16.188,5.318,14.9,13.837-.045.3-.1.6-.125.708L237.444,187s.1-.11.2-.212c3.331-3.324,6.658-6.652,9.838-9.831,1.256-5.647,6.294-7.524,9.761-11.017l5.17,5.488c-3.157,3.394-5.219,8.209-10.419,9.634l-10.393,10.4c.306.329.667.742,1.054,1.129q8.831,8.862,17.663,17.724a6.286,6.286,0,0,1,1.485,7.315,6.5,6.5,0,0,1-6.292,3.813,6.746,6.746,0,0,1-4.429-2.187q-7.632-7.673-15.294-15.316A17.113,17.113,0,0,1,234.69,202.59Zm-.458-3.7c6.323,6.325,12.625,12.664,18.975,18.956a3.87,3.87,0,0,0,5.3.252c1.942-1.579,1.987-4.221.038-6.179q-9.082-9.124-18.2-18.208a3.312,3.312,0,0,0-.527-.393Zm-19.634-15.6-4.861-5.688c-.405,6.681,5.476,11.806,11.46,10.482a2.955,2.955,0,0,1,3.23.977c1.714,1.878,3.551,3.644,5.178,5.3l5.919-5.8-6.756-6.792c1.255-7.593-3.359-13.824-9.817-12.894l5.13,5.291c-.577,2.207-1.018,4.153-1.623,6.047a2.284,2.284,0,0,1-1.27,1.3C219.25,182.134,217.257,182.592,214.6,183.294ZM227.687,196a14.884,14.884,0,0,1-6.941,6.263,1.84,1.84,0,0,0-.456.406c-3.141,3.142-6.309,6.258-9.411,9.439a3.981,3.981,0,1,0,5.611,5.646c1.409-1.333,2.773-2.716,4.124-4.109,2.651-2.733,5.578-5.194,7.487-8.621.735-1.319,2.178-2.249,3.319-3.334a9.56,9.56,0,0,1,1-.759Zm25.01-17.921c3.226-1.527,4.563-4.624,6.675-6.773l-1.964-2.322c-2.347,2.361-5.443,3.68-6.921,6.71Zm-2.923.531L231.888,196.5l.351.26,17.83-17.825Z" transform="translate(0 0)" fill="#b3a05c"/>
    <path id="Path_104944" data-name="Path 104944" d="M361.973,322.934c-1.022-.007-1.268-1.182-1.222-1.552.061-.492-.19-1.127,1.054-1.367,1.224-.041,1.092.753,1.206,1.233C363.1,321.613,362.951,322.865,361.973,322.934Z" transform="translate(-106.195 -106.524)" fill="#b3a05c"/>
    <path id="Path_104945" data-name="Path 104945" d="M236.349,291.242c-.133.683-9.608,10.38-10.346,10.311-1.11-.012-1.472-1.086-.389-2.187q4.343-4.415,8.761-8.756C235.406,289.6,236.654,289.962,236.349,291.242Z" transform="translate(-12.299 -85.761)" fill="#b3a05c"/>
  </g>
</svg>
