<svg id="notification-alert-svgrepo-com" xmlns="http://www.w3.org/2000/svg" width="32" height="32" viewBox="0 0 32 32">
  <rect id="view-box" width="32" height="32" fill="none"/>
  <path id="Shape" d="M8.025,22.738V22.07H3.009A3.013,3.013,0,0,1,0,19.06v-.511a3.4,3.4,0,0,1,1.893-3.062,1.668,1.668,0,0,0,.916-1.347l.6-6.567A8.329,8.329,0,0,1,14.2.383a7.326,7.326,0,0,0-.849,1.838A6.412,6.412,0,0,0,11.7,2.007,6.286,6.286,0,0,0,5.41,7.758l-.6,6.565a3.663,3.663,0,0,1-2.021,2.959,1.411,1.411,0,0,0-.788,1.269v.511a1,1,0,0,0,1,1H20.4a1,1,0,0,0,1-1v-.511a1.408,1.408,0,0,0-.784-1.268,3.663,3.663,0,0,1-2.025-2.959l-.268-2.916a7.32,7.32,0,0,0,2.041.3l.222,2.437a1.685,1.685,0,0,0,.918,1.344,3.407,3.407,0,0,1,1.9,3.063v.511a3.012,3.012,0,0,1-3.009,3.009h-5.01v.671a3.678,3.678,0,1,1-7.356,0Zm2.006,0a1.672,1.672,0,1,0,3.344,0V22.07H10.031ZM20.126,9.021A4.663,4.663,0,0,1,18.057,8.4L18,7.758a6.286,6.286,0,0,0-2.2-4.26,4.681,4.681,0,0,1,.816-1.9A8.321,8.321,0,0,1,20,7.574l.134,1.446h0Z" transform="translate(4.347 3.009)" fill="#61aa96"/>
  <path id="Shape-2" data-name="Shape" d="M4.681,9.363A4.681,4.681,0,1,1,9.363,4.681,4.681,4.681,0,0,1,4.681,9.363Z" transform="translate(20.063 2.675)" fill="#b3a05c"/>
</svg>
