<svg xmlns="http://www.w3.org/2000/svg" width="26.807" height="26.886" viewBox="0 0 26.807 26.886">
  <g id="Group_27" data-name="Group 27" transform="translate(-1233.775 -415.118)">
    <path id="Path_65" data-name="Path 65" d="M1260.581,427.748v1.677c-.04.327-.074.654-.121.98a13.437,13.437,0,0,1-10.987,11.391c-.488.085-.98.139-1.47.207h-1.625c-.267-.033-.534-.069-.8-.1a12.392,12.392,0,0,1-5.9-2.192,13.105,13.105,0,0,1-5.819-12.7,12.528,12.528,0,0,1,4.433-8.466,12.8,12.8,0,0,1,13.15-2.641c5.076,1.73,8.05,5.414,8.989,10.71C1260.5,426.989,1260.532,427.37,1260.581,427.748Zm-16.885,2.8a6.451,6.451,0,1,1,7.471-10.5,6.183,6.183,0,0,1,2.412,4.508,6.414,6.414,0,0,1-2.945,5.992,10.722,10.722,0,0,1,5.944,5.171,11.819,11.819,0,1,0-18.824-.006A10.708,10.708,0,0,1,1243.7,430.55Zm3.477.984c-.279.015-.558.026-.837.046a4.732,4.732,0,0,0-.494.058,8.988,8.988,0,0,0-6.871,5.194.262.262,0,0,0,.077.371,11.852,11.852,0,0,0,16.239-.005.25.25,0,0,0,.077-.351A9,9,0,0,0,1247.173,431.535Zm.011-11.314a4.872,4.872,0,1,0,4.852,4.987A4.9,4.9,0,0,0,1247.184,420.221Z" transform="translate(0 0)" fill="#61aa96"/>
  </g>
</svg>
