<svg xmlns="http://www.w3.org/2000/svg" width="22.785" height="21.822" viewBox="0 0 22.785 21.822">
  <g id="Group_50354" data-name="Group 50354" transform="translate(-1462.444 -491.951)">
    <path id="Path_104946" data-name="Path 104946" d="M1480.012,501.808l-1.449,1.469v-4.284h-.956c-.912,0-1.823.01-2.734,0a1.894,1.894,0,0,1-1.945-1.959c-.01-1.18,0-2.36,0-3.592-.184-.011-.344-.029-.5-.029q-3.874,0-7.748,0c-.708,0-.776.07-.776.794q0,8.659,0,17.319c0,.7.063.765.747.765q6.558,0,13.116-.005a4.167,4.167,0,0,0,.742-.135v-1.059l1.432-1.415a23.428,23.428,0,0,1-.02,2.576,1.831,1.831,0,0,1-2.024,1.523q-4.507.006-9.014,0-2.127,0-4.254,0a1.924,1.924,0,0,1-2.175-2.136q-.007-8.786,0-17.572a1.9,1.9,0,0,1,2.1-2.106c2.8-.009,5.6,0,8.406-.006a2.273,2.273,0,0,1,1.718.709q2.278,2.3,4.594,4.573a2.337,2.337,0,0,1,.752,1.806C1480,499.983,1480.012,500.928,1480.012,501.808Zm-2.762-4.259-2.885-2.932c0,.78-.006,1.6,0,2.424a.472.472,0,0,0,.515.5C1475.706,497.556,1476.528,497.549,1477.25,497.549Z" transform="translate(0 0)" fill="#61aa96"/>
    <path id="Path_104947" data-name="Path 104947" d="M1608.3,594.649l1.871,1.866-4.654,4.666-1.89-1.881Z" transform="translate(-126.879 -92.295)" fill="#61aa96"/>
    <path id="Path_104948" data-name="Path 104948" d="M1508.577,585.234c-1.2,0-2.392,0-3.589,0-.453,0-.8-.147-.9-.63s.279-.826.891-.827c2.258-.005,4.516,0,6.773,0,.169,0,.337,0,.505,0,.573.015.912.285.914.725s-.333.726-.905.73C1511.037,585.239,1509.807,585.234,1508.577,585.234Z" transform="translate(-37.412 -82.523)" fill="#61aa96"/>
    <path id="Path_104949" data-name="Path 104949" d="M1505.5,523.574l-.506.112v2.1h-1.3c0-.273,0-.549,0-.825,0-.308-.108-.589-.44-.527-.168.031-.356.309-.409.508a3.543,3.543,0,0,0-.017.87h-1.269v-2.058l-.729-.245,2.37-2.371A7.6,7.6,0,0,1,1505.5,523.574Z" transform="translate(-34.505 -26.234)" fill="#61aa96"/>
    <path id="Path_104950" data-name="Path 104950" d="M1508.892,621.592c-1.2,0-2.4.006-3.6,0-.581,0-.931-.346-.851-.82s.4-.625.841-.624c1.519,0,3.038,0,4.558,0,.911,0,1.823,0,2.734,0,.588,0,.915.266.917.711s-.342.728-.908.73C1511.357,621.6,1510.124,621.592,1508.892,621.592Z" transform="translate(-37.737 -115.209)" fill="#61aa96"/>
    <path id="Path_104951" data-name="Path 104951" d="M1511.394,656.4l-.329,1.419c-.142.012-.272.031-.4.032q-2.805,0-5.61,0c-.612,0-.961-.27-.955-.722s.361-.727.96-.728C1507.145,656.4,1509.232,656.4,1511.394,656.4Z" transform="translate(-37.435 -147.793)" fill="#61aa96"/>
    <path id="Path_104952" data-name="Path 104952" d="M1585.519,648l2.135,2.139a8.955,8.955,0,0,1-1.132.614,8.72,8.72,0,0,1-1.321.319c-.518.107-.75-.115-.646-.623a11.574,11.574,0,0,1,.376-1.567A4.336,4.336,0,0,1,1585.519,648Z" transform="translate(-109.72 -140.24)" fill="#61aa96"/>
    <path id="Path_104953" data-name="Path 104953" d="M1659.385,578.423l-2.014-2.015a.053.053,0,0,1,.012-.029c1.352-1.457,1.074-1.243,2.234-.121.182.176.352.364.538.535a.526.526,0,0,1,.009.9C1659.9,577.924,1659.651,578.172,1659.385,578.423Z" transform="translate(-175.182 -74.952)" fill="#61aa96"/>
  </g>
</svg>
