<svg xmlns="http://www.w3.org/2000/svg" width="19.645" height="19.643" viewBox="0 0 19.645 19.643">
  <g id="Group_50411" data-name="Group 50411" transform="translate(-137.739 -77.125)">
    <path id="Path_104967" data-name="Path 104967" d="M149.759,77.125a1.713,1.713,0,0,1,1.267.514q2.917,2.913,5.828,5.832a1.79,1.79,0,0,1-.078,2.616l-4.593,4.592q-2.742,2.743-5.484,5.486a1.793,1.793,0,0,1-2.687-.007q-2.833-2.839-5.671-5.673a1.792,1.792,0,0,1-.005-2.674q5.051-5.054,10.1-10.109A1.808,1.808,0,0,1,149.759,77.125Zm-.77,1.8.027.044-9.433,9.4h8.983c.354,0,.423-.071.423-.433q0-4.407,0-8.813Zm-2.622,15.769,8.97-8.942H150.18v.23c0,.7,0,1.4,0,2.1a1.438,1.438,0,0,1-1.49,1.488c-.7,0-1.4,0-2.1,0-.072,0-.145.006-.226.01ZM156.1,84.534l.053-.065c-1.974-1.982-3.955-3.958-5.961-5.966v6.031Zm-16.955,5.039a.74.74,0,0,0,.054.079q2.854,2.857,5.711,5.711a1.642,1.642,0,0,0,.233.162V89.573Z" transform="translate(0 0)" fill="#fff"/>
    <path id="Path_104968" data-name="Path 104968" d="M141.611,110.513c1.01,0,2.021,0,3.031,0a.581.581,0,0,1,.57.38.554.554,0,0,1-.174.642.782.782,0,0,1-.41.143q-3.021.014-6.042,0a.586.586,0,1,1,.013-1.17C139.6,110.511,140.607,110.513,141.611,110.513Z" transform="translate(-0.227 -32.026)" fill="#fff"/>
    <path id="Path_104969" data-name="Path 104969" d="M140.474,167.625c-.617,0-1.234,0-1.851,0a.589.589,0,1,1-.008-1.172q1.841,0,3.682,0a.592.592,0,0,1,.665.583c0,.356-.263.589-.677.59Z" transform="translate(-0.221 -85.684)" fill="#fff"/>
    <path id="Path_104970" data-name="Path 104970" d="M139.805,511.6c.394,0,.787,0,1.181,0a.581.581,0,1,1-.005,1.159q-1.191,0-2.382,0a.582.582,0,1,1,.005-1.159C139,511.6,139.4,511.6,139.805,511.6Z" transform="translate(-0.223 -416.755)" fill="#fff"/>
    <path id="Path_104971" data-name="Path 104971" d="M139.789,222.006c-.4,0-.8,0-1.2,0a.569.569,0,0,1-.614-.565.562.562,0,0,1,.586-.593q1.222-.012,2.443,0a.58.58,0,1,1-.013,1.158C140.589,222.008,140.189,222.006,139.789,222.006Z" transform="translate(-0.225 -137.856)" fill="#fff"/>
  </g>
</svg>
