<svg xmlns="http://www.w3.org/2000/svg" width="23.085" height="23.619" viewBox="0 0 23.085 23.619">
  <g id="Group_50355" data-name="Group 50355" transform="translate(-2023.57 -696.767)">
    <path id="Path_104954" data-name="Path 104954" d="M2089.864,704.341a.593.593,0,0,1-.405-.154.488.488,0,0,1,0-.734l6.826-6.246a.6.6,0,0,1,.8,0l5.638,5.136a.492.492,0,0,1,0,.734l-1.207,1.1a.6.6,0,0,1-.8,0,.488.488,0,0,1,0-.734l.8-.734-4.817-4.4-6.43,5.88a.6.6,0,0,1-.406.154Z" transform="translate(-59.241 -0.096)" fill="#61aa96" stroke="#61aa96" stroke-width="0.3"/>
    <path id="Path_104955" data-name="Path 104955" d="M2065.356,704.244a.635.635,0,0,1-.289-.068.5.5,0,0,1-.2-.714l3.978-6.256a.6.6,0,0,1,.772-.193l3.331,1.747a.506.506,0,0,1,.213.714.59.59,0,0,1-.772.193l-2.839-1.487-3.7,5.8a.592.592,0,0,1-.493.261Z" transform="translate(-37.099)" fill="#61aa96" stroke="#61aa96" stroke-width="0.3"/>
    <path id="Path_104956" data-name="Path 104956" d="M2043.657,761.63h-17.089a2.952,2.952,0,0,0-2.848,3.046v10.953a2.952,2.952,0,0,0,2.848,3.046h17.089a2.952,2.952,0,0,0,2.848-3.046V764.676A2.952,2.952,0,0,0,2043.657,761.63Zm1.709,14.01a1.773,1.773,0,0,1-1.709,1.828h-17.089a1.773,1.773,0,0,1-1.709-1.828V764.687a1.766,1.766,0,0,1,1.709-1.827h17.089a1.773,1.773,0,0,1,1.709,1.827Z" transform="translate(0 -58.438)" fill="#61aa96" stroke="#61aa96" stroke-width="0.3"/>
    <path id="Path_104957" data-name="Path 104957" d="M2187.434,815.53a2.294,2.294,0,1,0,2.278,2.294A2.29,2.29,0,0,0,2187.434,815.53Zm0,3.452a1.147,1.147,0,1,1,1.139-1.148A1.142,1.142,0,0,1,2187.434,818.982Z" transform="translate(-146.849 -105.403)" fill="#61aa96"/>
  </g>
</svg>
